<svg xmlns="http://www.w3.org/2000/svg" width="92.152" height="92.476" viewBox="0 0 92.152 92.476">
  <g id="Group_456" data-name="Group 456" transform="translate(175 -2361)">
    <path id="Polygon_9" data-name="Polygon 9" d="M34.3,0l34.3,62.039H0Z" transform="translate(-129.628 2361) rotate(47)" fill="#dece01"/>
    <g id="Group_455" data-name="Group 455" transform="translate(-217.752 2400.092)">
      <path id="Icon_ionic-ios-call" data-name="Icon ionic-ios-call" d="M33.9,27.978a21.081,21.081,0,0,0-5-3c-1.587-.762-2.877-.809-4,0-.935.675-.924,1.236-2,1a17.392,17.392,0,0,1-6-4,10.311,10.311,0,0,1-3-5,3.882,3.882,0,0,1,1-3c.809-1.123.77-1.413,0-3a31.8,31.8,0,0,0-4-6c-1.155-1.155-1.364-.228-2,0a10.5,10.5,0,0,0-2,1c-1.155.77-1.544,1.034-2,2s-.639,3.3,2,8a36.4,36.4,0,0,0,7,9h0a46.072,46.072,0,0,0,10,8c4.7,2.639,6.034,1.448,7,1a6.277,6.277,0,0,0,3-2,10.5,10.5,0,0,0,1-2C35.124,29.342,35.059,29.133,33.9,27.978Z" transform="translate(60.123 -4.502)" fill="#fff"/>
    </g>
  </g>
</svg>
